<svg width="299" height="252" viewBox="0 0 299 252" fill="none" xmlns="http://www.w3.org/2000/svg">
<path d="M15.0588 119.908C11.0967 119.908 7.29644 118.334 4.49486 115.531C1.69328 112.729 0.119141 108.928 0.119141 104.965C0.119141 80.0657 0.119141 30.7812 0.119141 10.0552C0.119141 7.5259 1.12384 5.10023 2.91159 3.31198C4.69973 1.52333 7.12471 0.518799 9.65331 0.518799H13.002C15.5306 0.518799 17.9556 1.52333 19.7433 3.31198C21.5315 5.10023 22.5358 7.5259 22.5358 10.0552C22.5358 34.4996 22.5358 97.4854 22.5358 97.4854H52.4246V10.0552C52.4246 7.5259 53.4293 5.10023 55.217 3.31198C57.0052 1.52333 59.4302 0.518799 61.9588 0.518799H65.3074C67.836 0.518799 70.261 1.52333 72.0488 3.31198C73.8369 5.10023 74.8412 7.5259 74.8412 10.0552C74.8412 30.7812 74.8412 80.0657 74.8412 104.965C74.8412 108.928 73.2675 112.729 70.4655 115.531C67.6639 118.334 63.864 119.908 59.9016 119.908C46.8772 119.908 28.0831 119.908 15.0588 119.908Z" fill="white"/>
<path d="M93.288 119.908C87.0982 119.908 82.0801 114.889 82.0801 108.697C82.0801 89.5467 82.0801 50.5671 82.0801 29.5167C82.0801 25.7377 83.5809 22.1133 86.2522 19.4413C88.9238 16.7693 92.5467 15.2681 96.3247 15.2681C103.724 15.2681 112.741 15.2681 120.141 15.2681C123.919 15.2681 127.542 16.7693 130.213 19.4413C132.885 22.1133 134.386 25.7377 134.386 29.5167V97.4854H141.858V13.3243C141.858 7.13244 146.876 2.11328 153.066 2.11328C153.066 2.11328 153.066 2.11328 153.066 2.11328C159.257 2.11328 164.274 7.13244 164.274 13.3243V107.253C164.274 114.243 158.61 119.908 151.623 119.908C143.433 119.908 132.81 119.908 124.62 119.908C117.633 119.908 111.969 114.243 111.969 107.253C111.969 84.1947 111.969 37.691 111.969 37.691H104.497V108.697C104.497 111.671 103.316 114.522 101.214 116.624C99.1123 118.727 96.2613 119.908 93.2888 119.908C93.2888 119.908 93.2884 119.908 93.288 119.908Z" fill="white"/>
<path d="M182.639 119.908C179.688 119.908 176.857 118.736 174.77 116.648C172.683 114.56 171.511 111.729 171.511 108.777V56.2966C171.511 53.3443 172.683 50.5129 174.77 48.4253C176.857 46.338 179.688 45.1653 182.639 45.1653H182.799C185.751 45.1653 188.581 46.338 190.668 48.4253C192.755 50.5129 193.927 53.3443 193.927 56.2966V108.777C193.927 111.729 192.755 114.56 190.668 116.648C188.581 118.736 185.751 119.908 182.799 119.908C182.746 119.908 182.692 119.908 182.639 119.908ZM182.507 37.691C179.59 37.691 176.794 36.5322 174.732 34.4692C172.669 32.4067 171.511 29.6091 171.511 26.692V26.2666C171.511 23.3499 172.669 20.5523 174.732 18.4894C176.794 16.4269 179.59 15.2681 182.507 15.2681H182.932C185.848 15.2681 188.645 16.4269 190.707 18.4894C192.769 20.5523 193.927 23.3499 193.927 26.2666C193.927 26.4085 193.927 26.5505 193.927 26.692C193.927 29.6091 192.769 32.4067 190.707 34.4692C188.645 36.5322 185.848 37.691 182.932 37.691H182.507Z" fill="white"/>
<path d="M234.793 132.266C231.82 132.266 228.97 131.085 226.868 128.982C224.766 126.88 223.585 124.028 223.585 121.055V37.691C223.585 37.691 213.578 37.691 205.203 37.691C199.013 37.691 193.995 32.6714 193.995 26.4799V26.4791C193.995 20.2872 199.013 15.2681 205.203 15.2681C225.256 15.2681 267.047 15.2681 287.099 15.2681C293.289 15.2681 298.307 20.2872 298.307 26.4791V26.4799C298.307 32.6714 293.289 37.691 287.099 37.691C271.732 37.691 246.002 37.691 246.002 37.691V121.055C246.002 124.028 244.821 126.88 242.719 128.982C240.617 131.085 237.766 132.266 234.794 132.266H234.793Z" fill="white"/>
<path d="M10.8384 251.703C4.91847 251.703 0.119141 246.903 0.119141 240.981C0.119141 217.163 0.119141 160.078 0.119141 136.259C0.119141 130.338 4.91847 125.537 10.8384 125.537C10.9919 125.537 11.1457 125.537 11.2991 125.537C17.5049 125.537 22.5358 130.569 22.5358 136.777C22.5358 152.152 22.5358 177.857 22.5358 177.857H52.4246V136.777C52.4246 130.569 57.4555 125.537 63.6612 125.537H64.1223C70.0423 125.537 74.8412 130.338 74.8412 136.259C74.8412 160.078 74.8412 217.163 74.8412 240.981C74.8412 246.903 70.0423 251.703 64.1223 251.703C63.9685 251.703 63.815 251.703 63.6612 251.703C57.4555 251.703 52.4246 246.671 52.4246 240.464V200.28H22.5358V240.464C22.5358 246.671 17.5049 251.703 11.2991 251.703H10.8384Z" fill="white"/>
<path d="M94.2644 230.177C91.0325 230.177 87.9328 228.893 85.6477 226.607C83.3622 224.321 82.0781 221.221 82.0781 217.988C82.0781 197.482 82.0781 156.394 82.0781 136.641C82.0781 133.696 83.2477 130.872 85.3296 128.79C87.4115 126.707 90.235 125.537 93.1792 125.537C93.2509 125.537 93.3223 125.537 93.3937 125.537C96.3379 125.537 99.1614 126.707 101.243 128.79C103.325 130.872 104.495 133.696 104.495 136.641C104.495 159.091 104.495 207.754 104.495 207.754H134.384V136.641C134.384 133.696 135.553 130.872 137.635 128.79C139.717 126.707 142.54 125.537 145.485 125.537C145.556 125.537 145.628 125.537 145.699 125.537C148.643 125.537 151.467 126.707 153.549 128.79C155.631 130.872 156.8 133.696 156.8 136.641C156.8 156.394 156.8 197.482 156.8 217.988C156.8 221.221 155.517 224.321 153.231 226.607C150.946 228.893 147.846 230.177 144.614 230.177H94.2644Z" fill="white"/>
<path d="M216.346 207.754V185.332H186.458V207.754H216.346ZM201.402 162.909V147.96H186.458V162.909H201.402ZM176.699 230.177C169.708 230.177 164.041 224.509 164.041 217.517V138.198C164.041 134.84 165.375 131.62 167.748 129.246C170.122 126.871 173.342 125.537 176.699 125.537H211.161C218.152 125.537 223.819 131.206 223.819 138.198V162.909H226.106C229.463 162.909 232.682 164.243 235.056 166.617C237.43 168.992 238.763 172.212 238.763 175.57V217.517C238.763 224.509 233.096 230.177 226.106 230.177H176.699Z" fill="white"/>
</svg>
